<?xml version="1.0" standalone="no"?>
<!DOCTYPE svg PUBLIC "-//W3C//DTD SVG 20010904//EN"
 "http://www.w3.org/TR/2001/REC-SVG-20010904/DTD/svg10.dtd">
<svg version="1.0" xmlns="http://www.w3.org/2000/svg"
 width="313.000000pt" height="662.000000pt" viewBox="0 0 313.000000 662.000000"
 preserveAspectRatio="xMidYMid meet">
<metadata>
Created by potrace 1.16, written by Peter Selinger 2001-2019
</metadata>
<g transform="translate(0.000000,662.000000) scale(0.100000,-0.100000)"
fill="#ffffff61" stroke="none">
<path d="M920 6611 c-91 -5 -124 -11 -157 -29 -23 -12 -45 -26 -48 -32 -4 -6
-34 -24 -67 -41 -33 -17 -86 -48 -117 -69 -69 -47 -192 -172 -216 -220 -9 -19
-30 -48 -45 -65 -40 -42 -75 -111 -111 -212 -35 -99 -34 -121 7 -214 26 -57
27 -64 15 -107 -35 -123 -37 -223 -6 -282 16 -30 70 -80 88 -80 6 0 25 15 43
33 67 68 130 125 163 147 32 22 36 23 120 10 47 -6 92 -14 99 -16 21 -6 13
-62 -18 -123 -23 -47 -43 -69 -99 -110 -39 -28 -75 -60 -82 -72 -6 -12 -30
-45 -53 -73 -23 -28 -54 -80 -69 -116 -16 -36 -39 -87 -52 -115 -109 -230
-183 -427 -206 -555 -6 -30 -17 -75 -26 -100 -10 -30 -13 -61 -8 -94 4 -36 2
-54 -10 -73 -10 -14 -14 -35 -11 -47 3 -13 -1 -32 -10 -44 -21 -31 -39 -141
-37 -237 3 -160 22 -480 32 -524 6 -25 13 -75 17 -111 7 -76 49 -296 64 -334
12 -32 17 -32 135 -1 52 14 163 39 246 55 83 16 155 33 160 36 6 3 27 6 47 6
20 0 56 8 79 19 55 25 96 25 91 2 -4 -22 -55 -40 -173 -60 -49 -9 -103 -22
-119 -30 -16 -9 -73 -21 -125 -29 -53 -7 -116 -19 -141 -25 -25 -7 -61 -16
-81 -21 -40 -9 -59 -43 -36 -65 13 -12 48 -8 192 22 39 8 90 14 115 13 25 -1
77 4 115 10 154 27 245 45 345 67 58 13 149 26 202 30 66 5 101 12 110 22 25
31 132 64 157 48 16 -9 1 -35 -20 -35 -11 0 -47 -11 -81 -25 -34 -14 -69 -25
-79 -25 -10 0 -35 -10 -55 -22 -21 -12 -58 -25 -83 -29 -126 -20 -171 -29
-223 -48 -32 -12 -68 -21 -82 -21 -13 0 -53 -9 -88 -20 -72 -23 -116 -25 -202
-9 -52 10 -73 9 -131 -6 -39 -9 -85 -19 -102 -22 -28 -4 -31 -8 -23 -23 6 -10
10 -34 10 -52 l0 -33 143 6 c79 3 148 8 153 11 5 4 26 9 46 12 94 15 206 47
233 67 6 4 53 19 105 33 52 14 136 39 185 57 50 18 110 35 135 39 47 8 144 33
265 70 77 23 131 37 280 70 55 12 128 30 163 41 34 10 72 19 85 19 12 0 54 10
92 21 39 10 95 24 125 30 30 6 70 18 89 25 73 31 233 64 361 75 169 14 171 14
200 39 13 11 34 20 47 20 21 0 23 4 23 56 0 54 -1 56 -22 49 -13 -4 -57 -12
-98 -17 -41 -5 -97 -16 -124 -24 -26 -8 -62 -14 -80 -14 -17 0 -47 -5 -66 -10
-19 -6 -66 -15 -105 -21 -48 -8 -74 -17 -83 -30 -7 -11 -21 -19 -31 -19 -9 0
-26 -7 -37 -15 -10 -8 -29 -15 -42 -15 -13 0 -31 -4 -41 -10 -10 -5 -45 -14
-77 -20 -33 -6 -79 -15 -104 -20 -25 -5 -68 -13 -97 -19 -28 -5 -64 -16 -80
-24 -36 -18 -134 -44 -198 -51 -27 -4 -66 -13 -85 -20 -19 -8 -57 -18 -85 -24
-27 -5 -61 -13 -74 -17 -19 -7 -22 -5 -19 11 6 33 130 81 253 99 28 3 104 23
170 42 66 20 148 40 182 44 34 4 94 17 135 28 40 10 93 24 118 30 25 7 62 16
84 22 21 5 48 15 60 22 11 6 46 17 76 24 30 6 80 18 110 26 30 8 87 20 125 27
98 16 217 40 238 46 10 3 17 15 17 30 0 13 -2 24 -4 24 -1 0 -48 -11 -102 -24
-54 -14 -135 -30 -179 -36 -44 -5 -102 -18 -130 -26 -27 -9 -72 -20 -100 -24
-302 -48 -431 -78 -535 -122 -26 -12 -81 -23 -185 -37 -33 -5 -80 -18 -105
-29 -25 -11 -69 -23 -97 -26 -49 -6 -53 -5 -53 14 0 14 7 20 24 20 13 0 53 9
88 20 34 11 77 20 93 20 17 0 75 12 130 26 55 14 165 41 245 60 79 18 151 36
160 40 8 4 47 10 85 14 98 11 230 37 256 51 13 6 72 20 133 30 61 10 134 23
161 29 28 6 69 14 93 17 51 6 60 23 92 173 18 84 21 117 15 212 -4 62 -8 257
-9 433 -3 322 -14 497 -41 624 -14 68 -55 199 -80 256 -7 17 -25 59 -40 94
-60 144 -104 201 -253 329 -34 30 -89 65 -124 78 -33 14 -82 43 -107 64 -25
21 -59 45 -76 55 -142 79 -159 91 -168 120 -5 17 -17 39 -27 50 -10 11 -21 31
-25 45 -4 14 -18 38 -31 53 -13 16 -24 34 -24 40 0 19 -60 128 -94 172 -50 63
-212 222 -234 229 -11 4 -30 23 -41 42 -11 19 -26 36 -33 39 -7 2 -46 13 -87
25 -69 20 -74 24 -90 61 -25 60 -79 77 -346 109 -142 17 -144 18 -265 11z
m-281 -2365 c15 -8 33 -22 40 -30 8 -9 28 -16 47 -16 30 0 64 -21 64 -40 0
-12 -54 -19 -154 -19 l-89 -1 6 43 c4 26 14 48 27 59 27 22 24 21 59 4z"/>
<path d="M2965 2998 c-16 -5 -75 -18 -130 -28 -55 -11 -163 -35 -240 -54 -77
-20 -149 -35 -160 -36 -11 0 -69 -13 -130 -30 -124 -33 -308 -75 -375 -85 -30
-5 -53 -16 -70 -34 -21 -22 -43 -30 -125 -45 -55 -10 -111 -24 -125 -31 -14
-7 -52 -16 -84 -20 -33 -4 -70 -11 -83 -16 -13 -5 -54 -13 -91 -19 -100 -16
-194 -39 -323 -82 -63 -21 -125 -38 -137 -38 -12 0 -30 -4 -40 -9 -155 -77
-308 -119 -478 -128 -90 -5 -91 -5 -86 -29 3 -18 11 -24 31 -24 59 0 249 29
291 45 25 9 65 20 90 25 71 14 234 61 247 71 20 17 116 49 145 49 16 0 36 4
46 10 32 18 141 50 204 59 35 6 101 15 148 22 47 6 105 18 130 25 106 34 188
56 235 64 28 4 77 17 110 28 111 37 175 38 175 2 0 -22 -19 -31 -85 -41 -54
-8 -160 -34 -215 -54 -69 -25 -107 -35 -126 -35 -10 0 -39 -7 -64 -16 -25 -9
-81 -22 -125 -29 -44 -8 -98 -18 -120 -24 -22 -6 -57 -11 -78 -11 -20 0 -45
-4 -55 -9 -30 -16 -152 -41 -168 -34 -10 4 -20 0 -26 -10 -4 -9 -25 -19 -46
-23 -20 -4 -41 -10 -47 -14 -5 -4 -26 -11 -45 -15 -19 -4 -45 -14 -57 -22 -12
-8 -41 -16 -65 -18 -24 -2 -56 -8 -71 -14 -16 -6 -43 -11 -60 -11 -18 0 -61
-9 -97 -20 -36 -10 -121 -30 -190 -43 -119 -23 -125 -25 -125 -48 0 -22 3 -24
40 -21 22 2 55 10 75 17 44 17 73 23 180 41 47 7 103 18 125 23 22 5 76 16
120 26 44 9 88 21 99 27 11 6 51 18 90 28 39 9 96 24 126 33 68 20 253 57 340
68 36 5 94 15 130 23 36 8 97 20 135 27 39 6 77 16 85 20 8 5 40 15 70 23 30
8 87 24 125 35 86 25 256 62 438 96 81 15 157 35 185 49 26 14 85 34 132 46
47 11 105 27 130 35 25 7 64 17 88 20 39 6 42 9 42 37 l0 30 -67 -7 c-37 -4
-101 -20 -141 -36 -40 -16 -85 -29 -100 -29 -16 0 -51 -6 -78 -14 -27 -8 -77
-17 -112 -21 -35 -3 -73 -10 -85 -14 -93 -36 -256 -52 -263 -26 -4 11 176 72
236 81 19 3 58 11 85 19 57 16 191 44 375 78 l125 24 3 36 c3 40 2 40 -43 25z"/>
<path d="M2920 2759 c-14 -6 -54 -17 -90 -25 -36 -9 -70 -20 -77 -26 -7 -6
-25 -8 -40 -5 -18 3 -36 -1 -52 -14 -13 -10 -39 -19 -58 -19 -18 0 -44 -6 -56
-14 -25 -16 -175 -56 -211 -56 -13 0 -39 -6 -57 -14 -19 -8 -65 -21 -104 -30
-38 -9 -86 -21 -105 -26 -19 -4 -66 -16 -105 -24 -38 -9 -104 -25 -145 -36
-41 -11 -102 -25 -135 -30 -33 -5 -89 -16 -125 -24 -36 -8 -110 -22 -165 -30
-167 -27 -275 -51 -385 -88 -121 -40 -289 -82 -297 -74 -3 3 -22 -1 -42 -9
-20 -7 -74 -19 -121 -26 -47 -6 -111 -20 -142 -30 -32 -10 -73 -21 -93 -25
-29 -5 -35 -11 -35 -31 0 -23 3 -24 28 -18 59 16 221 50 402 85 69 13 130 29
300 80 124 38 388 93 570 120 41 6 107 20 145 31 74 21 302 73 395 90 132 25
249 52 300 69 30 10 94 28 143 39 48 11 98 28 110 36 13 8 34 15 48 14 13 -1
49 9 79 21 30 12 63 24 73 27 20 6 23 -15 3 -23 -8 -3 -16 -13 -18 -22 -4 -12
-28 -23 -84 -36 -43 -10 -101 -26 -129 -36 -27 -10 -68 -24 -90 -31 -22 -6
-48 -15 -57 -20 -10 -5 -27 -9 -38 -9 -11 0 -43 -9 -72 -20 -29 -11 -70 -20
-91 -20 -21 0 -47 -5 -59 -11 -26 -14 -131 -31 -184 -29 -26 0 -46 -5 -54 -15
-7 -8 -28 -15 -49 -15 -20 0 -54 -9 -75 -19 -25 -13 -48 -18 -72 -14 -21 4
-55 -2 -91 -15 -56 -19 -130 -38 -183 -47 -90 -14 -181 -27 -217 -30 -24 -2
-64 -14 -90 -27 -32 -16 -47 -19 -50 -11 -3 9 -15 7 -41 -7 -20 -10 -102 -33
-182 -50 -80 -17 -210 -46 -290 -65 -80 -19 -174 -39 -210 -45 -35 -7 -76 -18
-92 -26 -15 -8 -43 -14 -62 -14 -26 0 -38 -6 -46 -21 -7 -11 -10 -22 -8 -24 4
-5 121 20 183 39 66 20 204 33 190 17 -10 -10 -171 -52 -315 -83 -49 -10 -66
-18 -68 -32 -4 -19 -7 -19 108 4 90 19 259 50 271 50 8 0 8 -4 1 -13 -14 -16
-71 -30 -227 -57 -66 -12 -121 -22 -122 -24 -2 -2 -1 -11 3 -20 4 -11 12 -15
23 -10 9 3 50 13 91 20 168 30 226 45 236 59 6 8 17 15 23 15 7 0 9 5 6 10 -3
6 -2 10 3 10 12 0 12 53 0 61 -5 3 16 9 47 13 59 7 57 8 115 -61 10 -12 152
-7 180 7 8 4 49 11 90 15 41 4 95 14 120 21 51 16 110 18 110 5 0 -4 -28 -14
-62 -20 -35 -6 -97 -18 -138 -27 -41 -8 -100 -19 -130 -25 -30 -5 -74 -14 -98
-19 -23 -6 -70 -10 -105 -10 -50 0 -66 4 -80 20 -22 26 -28 25 -50 -5 -17 -24
-17 -25 0 -25 20 -1 -44 -27 -97 -40 -69 -17 -136 -29 -186 -34 -28 -3 -58 -8
-67 -12 -26 -9 -21 -58 9 -93 14 -17 22 -36 18 -43 -13 -21 -13 -191 0 -218
17 -35 14 -446 -4 -479 -9 -17 -10 -43 -5 -85 3 -34 9 -86 11 -116 3 -36 12
-64 29 -85 32 -43 40 -91 20 -137 -8 -21 -15 -57 -15 -80 2 -84 -12 -252 -21
-269 -22 -42 2 -77 60 -89 26 -5 50 -35 38 -47 -4 -4 -23 1 -43 12 -37 20 -60
12 -49 -18 12 -29 74 -45 156 -40 69 5 80 3 108 -18 40 -30 96 -28 154 3 32
18 43 30 45 51 3 24 14 33 64 57 58 28 63 28 97 14 20 -8 44 -23 53 -34 16
-20 17 -20 24 2 9 30 22 38 62 38 26 0 32 -4 32 -21 0 -19 4 -21 33 -15 85 19
96 18 137 -3 37 -19 43 -20 63 -6 13 8 50 24 83 36 32 11 78 28 101 36 64 23
95 86 107 215 4 37 17 100 30 140 13 40 27 91 31 113 4 22 20 65 35 95 15 30
35 71 43 91 9 20 29 52 46 72 32 36 55 43 241 67 30 4 102 17 160 29 58 12
139 29 180 37 41 8 102 21 135 29 33 8 94 22 135 30 197 41 202 44 237 123 13
31 35 69 49 85 20 24 24 39 24 97 0 54 6 82 30 135 32 72 37 123 17 176 -14
38 -16 485 -2 577 6 39 4 52 -5 52 -9 0 -9 4 1 17 19 23 20 165 1 158 -8 -3
-26 -8 -40 -11 -89 -19 -304 -75 -341 -88 -57 -21 -111 -21 -111 -1 0 10 10
15 29 15 16 0 47 7 70 15 37 13 340 89 384 97 16 3 16 5 4 22 -14 19 -17 18
-128 -11 -63 -17 -148 -39 -189 -49 -41 -10 -104 -29 -140 -42 -36 -13 -79
-27 -95 -31 -17 -5 -39 -12 -50 -18 -19 -10 -205 -58 -320 -82 -27 -6 -93 -22
-145 -37 -94 -25 -159 -39 -255 -54 -45 -7 -105 -18 -345 -64 -41 -8 -111 -23
-155 -34 -219 -54 -382 -85 -396 -76 -32 19 10 36 156 64 61 11 130 27 155 34
25 8 70 19 100 24 30 6 98 20 150 31 150 32 289 58 370 71 41 7 86 16 100 21
14 4 53 13 86 19 34 6 88 17 120 26 33 8 120 28 195 44 74 15 155 37 180 48
24 11 59 23 77 27 18 4 71 22 117 40 46 18 105 36 131 40 26 4 82 16 123 27
42 11 90 23 106 27 23 5 31 13 33 34 3 24 1 26 -20 18 -13 -4 -35 -11 -50 -15
-25 -6 -28 -4 -28 18 0 27 16 36 66 36 30 0 34 3 34 25 0 23 -4 25 -42 24 -24
0 -54 -5 -68 -10z m-747 -460 c-6 -6 -26 -14 -44 -19 -19 -4 -70 -18 -114 -30
-151 -42 -256 -64 -395 -86 -63 -9 -135 -23 -160 -30 -25 -8 -58 -14 -74 -14
-15 0 -74 -11 -130 -24 -55 -14 -137 -32 -181 -41 -44 -9 -96 -21 -115 -25
-19 -5 -60 -11 -91 -13 -47 -3 -55 -1 -44 10 8 7 23 13 34 13 11 0 23 5 26 10
3 6 31 10 60 10 30 0 75 7 100 16 47 16 179 47 275 65 30 5 89 16 130 24 113
22 224 42 330 60 52 9 149 31 215 49 124 35 198 45 178 25z m615 -1 c-3 -7
-20 -14 -39 -16 -40 -3 -91 -25 -109 -47 -8 -10 -30 -15 -65 -15 -48 0 -55 -3
-89 -40 -32 -35 -43 -40 -84 -41 -26 -1 -61 -3 -79 -5 l-32 -2 33 29 c19 16
38 29 43 29 6 0 18 9 27 19 12 13 38 22 72 27 30 3 56 10 59 14 3 5 29 11 58
15 28 4 58 12 65 17 29 25 147 37 140 16z m-678 -81 c-16 -15 -101 -43 -160
-53 -19 -3 -62 -15 -95 -26 -67 -22 -126 -34 -343 -69 -71 -12 -101 -7 -72 11
8 6 27 10 42 10 15 0 45 7 65 15 21 8 89 21 151 30 63 9 132 23 154 31 22 8
50 14 62 14 11 0 41 7 66 16 39 14 103 29 135 33 5 1 3 -5 -5 -12z m57 -114
c3 -7 -8 -15 -24 -18 -15 -4 -44 -13 -63 -22 -19 -9 -51 -19 -70 -23 -19 -5
-83 -22 -143 -39 -59 -17 -119 -31 -132 -31 -14 0 -42 -7 -62 -15 -19 -8 -52
-15 -72 -15 -20 0 -43 -6 -49 -12 -7 -7 -45 -18 -85 -24 -78 -12 -121 -25
-179 -55 -20 -10 -44 -19 -52 -19 -9 0 -16 -4 -16 -10 0 -5 -15 -10 -32 -10
-18 0 -55 -12 -83 -25 -33 -16 -67 -25 -100 -25 -27 0 -69 -7 -92 -15 -42 -15
-103 -11 -103 6 0 5 13 9 29 9 16 0 46 7 66 16 27 11 52 14 85 9 37 -5 49 -3
53 9 3 8 21 19 38 24 18 4 34 13 37 20 4 14 -30 16 -43 3 -6 -5 -39 -11 -75
-14 -81 -6 -255 -34 -295 -48 -39 -14 -208 -38 -219 -31 -15 9 37 31 74 32 20
0 40 4 45 9 10 9 133 30 205 35 19 2 46 8 60 13 14 6 54 14 90 18 36 3 102 15
146 26 45 10 91 19 102 19 12 0 31 4 44 9 13 5 57 15 98 21 75 12 148 27 270
56 36 9 89 17 118 20 29 2 61 8 70 13 9 4 39 12 67 16 27 4 61 13 75 20 14 7
42 16 63 20 20 4 53 15 72 25 38 20 76 21 82 3z m-822 -125 c-11 -6 -35 -15
-55 -19 -19 -5 -57 -13 -85 -19 -106 -24 -343 -63 -395 -66 -30 -1 -68 -6 -84
-10 -19 -4 -27 -3 -23 3 4 6 35 16 69 22 35 7 92 18 128 26 36 7 126 23 200
35 74 12 149 25 165 30 17 4 46 8 65 9 31 0 33 -1 15 -11z"/>
</g>
</svg>
